<?xml version="1.0" ?><svg height="22px" version="1.1" viewBox="0 0 22 22" width="22px" xmlns="http://www.w3.org/2000/svg" xmlns:sketch="http://www.bohemiancoding.com/sketch/ns" xmlns:xlink="http://www.w3.org/1999/xlink"><title/><desc/><defs/><g fill="none" fill-rule="evenodd" id="miu" stroke="none" stroke-width="1"><path d="M11,22 C17.0751325,22 22,17.0751325 22,11 C22,4.92486745 17.0751325,0 11,0 C4.92486745,0 0,4.92486745 0,11 C0,17.0751325 4.92486745,22 11,22 Z M11,21 C16.5228478,21 21,16.5228478 21,11 C21,5.47715223 16.5228478,1 11,1 C5.47715223,1 1,5.47715223 1,11 C1,16.5228478 5.47715223,21 11,21 Z M17,15 L14.56885,15 L14.56885,11.4846001 C14.56885,10.564449 14.1885583,9.93628738 13.3523048,9.93628738 C12.7126646,9.93628738 12.3569497,10.3601844 12.1913805,10.7687136 C12.1292921,10.9153487 12.1389934,11.1196132 12.1389934,11.3238778 L12.1389934,15 L9.73047977,15 C9.73047977,15 9.76152399,8.77281168 9.73047977,8.20676186 L12.1389934,8.20676186 L12.1389934,9.27290773 C12.2812794,8.80674906 13.0509172,8.14144842 14.279104,8.14144842 C15.8028575,8.14144842 17,9.11858872 17,11.222706 L17,15 Z M7.29480245,7.35704681 L7.27928034,7.35704681 C6.50317498,7.35704681 6,6.83774092 6,6.1794839 C6,5.50842031 6.51805033,5 7.3096778,5 C8.10065851,5 8.58701787,5.50713966 8.60253998,6.17756291 C8.60253998,6.83581994 8.10065851,7.35704681 7.29480245,7.35704681 Z M6.27745767,8.20676186 L8.42144873,8.20676186 L8.42144873,15 L6.27745767,15 L6.27745767,8.20676186 Z" fill="#000000" id="circle-social_linkedin_outline_stroke"/></g></svg>